HIERARCHY
ROOT Hips
{
    OFFSET 0.000000 0.000000 0.000000
    CHANNELS 6 Xposition Yposition Zposition Zrotation Xrotation Yrotation
    JOINT Spine
    {
        OFFSET -0.000000 14.517291 0.000000
        CHANNELS 3 Zrotation Xrotation Yrotation
        JOINT Spine1
        {
            OFFSET -0.000000 37.558300 0.000000
            CHANNELS 3 Zrotation Xrotation Yrotation
            JOINT Neck
            {
                OFFSET -0.000000 37.404057 3.400369
                CHANNELS 3 Zrotation Xrotation Yrotation
                JOINT Head
                {
                    OFFSET -0.000000 24.785618 -3.540803
                    CHANNELS 3 Zrotation Xrotation Yrotation
                    End Site
                    {
                        OFFSET -0.000000 35.408028 0.000000
                    }
                }
            }
            JOINT LeftShoulder
            {
                OFFSET 6.992933 33.973492 -0.192664
                CHANNELS 3 Zrotation Xrotation Yrotation
                JOINT LeftArm
                {
                    OFFSET 21.527611 0.000000 0.000000
                    CHANNELS 3 Zrotation Xrotation Yrotation
                    JOINT LeftForeArm
                    {
                        OFFSET 56.353916 0.000000 0.000000
                        CHANNELS 3 Zrotation Xrotation Yrotation
                        JOINT LeftHand
                        {
                            OFFSET 47.774071 0.000000 0.000000
                            CHANNELS 3 Zrotation Xrotation Yrotation
                            End Site
                            {
                                OFFSET 26.556021 0.000000 0.000000
                            }
                        }
                    }
                }
            }
            JOINT RightShoulder
            {
                OFFSET -7.065357 33.973492 -0.192664
                CHANNELS 3 Zrotation Xrotation Yrotation
                JOINT RightArm
                {
                    OFFSET -21.527611 0.000000 0.000000
                    CHANNELS 3 Zrotation Xrotation Yrotation
                    JOINT RightForeArm
                    {
                        OFFSET -56.353916 0.000000 0.000000
                        CHANNELS 3 Zrotation Xrotation Yrotation
                        JOINT RightHand
                        {
                            OFFSET -47.774071 0.000000 0.000000
                            CHANNELS 3 Zrotation Xrotation Yrotation
                            End Site
                            {
                                OFFSET -26.556021 0.000000 0.000000
                            }
                        }
                    }
                }
            }
        }
    }
    JOINT LeftUpLeg
    {
        OFFSET 17.704014 0.000000 0.000000
        CHANNELS 3 Zrotation Xrotation Yrotation
        JOINT LeftLeg
        {
            OFFSET -0.000000 -81.181816 0.000000
            CHANNELS 3 Zrotation Xrotation Yrotation
            JOINT LeftFoot
            {
                OFFSET -0.000000 -62.821102 0.000000
                CHANNELS 3 Zrotation Xrotation Yrotation
                JOINT LeftToeBase
                {
                    OFFSET -0.000000 -11.507608 26.556021
                    CHANNELS 3 Zrotation Xrotation Yrotation
                    End Site
                    {
                        OFFSET -0.000000 0.000000 7.081605
                    }
                }
            }
        }
    }
    JOINT RightUpLeg
    {
        OFFSET -17.704014 0.000000 0.000000
        CHANNELS 3 Zrotation Xrotation Yrotation
        JOINT RightLeg
        {
            OFFSET -0.000000 -81.181816 0.000000
            CHANNELS 3 Zrotation Xrotation Yrotation
            JOINT RightFoot
            {
                OFFSET -0.000000 -62.821102 0.000000
                CHANNELS 3 Zrotation Xrotation Yrotation
                JOINT RightToeBase
                {
                    OFFSET -0.000000 -11.507608 26.556021
                    CHANNELS 3 Zrotation Xrotation Yrotation
                    End Site
                    {
                        OFFSET -0.000000 0.000000 7.081605
                    }
                }
            }
        }
    }
}
MOTION
Frames:    12
Frame Time:    0.008333
5.852402    155.905716    -28.919724    2.919955    -3.593495    -24.855629    1.418409    0.322812    5.538136    -1.916821    2.424332    1.887349    7.003819    1.468367    5.301476    -1.870003    0.424866    4.307333    -3.111758    9.112246    -8.253139    -43.473980    20.639618    -35.421707    27.868736    -45.440842    -61.153748    -17.520319    -28.666224    -27.118046    -3.709380    9.648250    -0.113408    38.443596    13.908182    63.064384    -4.754519    -24.604200    105.383087    10.923156    -17.336121    16.025690    9.854815    -20.174961    -4.876005    -14.701282    20.503958    7.359572    -4.059581    0.466176    24.329309    0.000000    0.000000    0.000000    -14.376544    3.771979    5.660260    7.243153    27.974216    3.138247    2.471632    -28.008032    -22.883526    0.000000    0.000000    0.000000    
6.011475    155.969940    -28.880909    2.963929    -3.646252    -25.559383    1.449633    0.322539    5.573342    -2.031910    2.495196    1.902727    7.201002    1.441464    5.602015    -2.100197    0.522267    4.561446    -3.122053    9.119484    -8.168465    -43.493824    20.459908    -35.204762    28.079620    -45.550804    -60.999695    -17.497229    -28.729092    -27.171719    -3.732374    9.645094    -0.036922    38.329090    14.046584    63.334297    -4.589827    -24.393635    105.451401    11.289139    -17.280499    15.870620    9.929952    -19.934464    -4.488191    -14.711284    20.409723    7.532931    -4.032139    0.414479    24.426052    0.000000    0.000000    0.000000    -14.586857    3.539286    6.143150    7.234073    27.942179    3.175871    2.563823    -27.892780    -22.688074    0.000000    0.000000    0.000000    
6.167563    156.036728    -28.824717    2.976828    -3.692966    -26.256477    1.493786    0.335061    5.602837    -2.072316    2.536429    1.914247    7.322128    1.408907    5.897559    -2.308965    0.661845    4.824525    -3.203965    9.110931    -8.101789    -43.543571    20.208042    -34.938831    28.200523    -45.575748    -60.898273    -17.508253    -28.708063    -27.260948    -3.843249    9.645732    0.055830    38.176609    14.240116    63.652515    -4.452856    -24.290543    105.480446    11.242451    -17.354280    15.807597    10.023456    -19.688206    -4.148882    -14.734397    20.315742    7.749122    -4.015658    0.333035    24.526781    0.000000    0.000000    0.000000    -14.729179    3.408632    6.325137    6.953043    27.760437    3.366407    2.800033    -27.769276    -22.261456    0.000000    0.000000    0.000000    
6.330641    156.103943    -28.769091    2.987024    -3.763252    -26.966537    1.537702    0.374649    5.630095    -2.114168    2.578927    1.925255    7.418268    1.385284    6.207725    -2.505043    0.786562    5.108661    -3.284373    9.109959    -8.071362    -43.627464    19.919024    -34.602299    28.392363    -45.598621    -60.769276    -17.507471    -28.667048    -27.272165    -3.942584    9.655097    0.130085    38.098892    14.319650    63.985458    -4.193221    -23.968641    105.508316    11.139856    -17.360144    15.762109    10.103665    -19.422054    -3.818532    -14.755616    20.226103    7.919185    -4.012298    0.247292    24.687908    0.000000    0.000000    0.000000    -14.935283    3.234457    6.658152    6.879228    27.672539    3.523134    2.936005    -27.630148    -21.986248    0.000000    0.000000    0.000000    
6.482520    156.166641    -28.708549    3.000716    -3.799277    -27.680403    1.623362    0.367149    5.656301    -2.222099    2.619422    1.937234    7.542339    1.415641    6.501246    -2.688103    0.872630    5.376559    -3.334297    9.134866    -7.978248    -43.621372    19.779295    -34.378006    28.735573    -45.732044    -60.456512    -17.544693    -28.713818    -27.389149    -4.029940    9.706109    0.239323    37.946327    14.462944    64.340347    -4.036119    -23.822517    105.503090    11.099462    -17.413818    15.737140    10.202670    -19.186586    -3.449724    -14.810119    20.125019    8.149533    -3.928102    0.185110    24.820160    0.000000    0.000000    0.000000    -15.122898    3.019310    7.036481    6.838075    27.591375    3.582750    3.091982    -27.489267    -21.690351    0.000000    0.000000    0.000000    
6.642935    156.234177    -28.655455    3.006025    -3.854401    -28.379463    1.662176    0.382327    5.665378    -2.240328    2.651876    1.941437    7.642612    1.469972    6.810472    -2.901131    0.951306    5.661855    -3.422227    9.148709    -7.972570    -43.741184    19.395588    -34.016594    28.769894    -45.707127    -60.424366    -17.462313    -28.694197    -27.369757    -4.130785    9.707318    0.378419    37.804390    14.576285    64.635162    -3.866802    -23.597727    105.483353    11.083199    -17.401045    15.690233    10.285847    -18.946009    -3.118064    -14.829655    20.053783    8.318806    -3.902333    0.111533    24.956888    0.000000    0.000000    0.000000    -15.314323    2.818576    7.401469    6.808289    27.517702    3.640185    3.267156    -27.340532    -21.398642    0.000000    0.000000    0.000000    
6.798842    156.301544    -28.584076    3.004681    -3.886771    -29.086489    1.789790    0.361551    5.668623    -2.361876    2.705163    1.946445    7.741282    1.530838    7.125548    -3.076555    1.018961    5.959066    -3.483766    9.129666    -7.896258    -43.793041    19.193050    -33.711308    29.060648    -45.785179    -60.129402    -17.560755    -28.682516    -27.494638    -4.224645    9.757316    0.515150    37.701832    14.627590    64.998924    -3.701544    -23.325830    105.419708    11.172248    -17.323393    15.653163    10.383411    -18.714106    -2.821955    -14.865812    19.978870    8.521745    -3.884820    0.014419    25.110476    0.000000    0.000000    0.000000    -15.496595    2.602417    7.731764    6.764714    27.443750    3.798687    3.429213    -27.183281    -21.144363    0.000000    0.000000    0.000000    
6.957917    156.370956    -28.530926    3.011335    -3.908456    -29.783066    1.868499    0.347322    5.675264    -2.428943    2.757237    1.951316    7.891415    1.543219    7.446783    -3.321045    1.112573    6.244236    -3.536304    9.084359    -7.880965    -43.910324    18.959776    -33.333916    29.239260    -45.863514    -60.006741    -17.429512    -28.765200    -27.382183    -4.307379    9.760530    0.605946    37.515709    14.762792    65.362244    -3.620216    -23.195448    105.339798    11.226013    -17.292002    15.628406    10.476399    -18.509119    -2.507258    -14.890739    19.915157    8.716650    -3.895868    -0.073542    25.251474    0.000000    0.000000    0.000000    -15.673642    2.370363    8.039165    6.739274    27.360260    3.933178    3.555080    -27.025150    -20.927471    0.000000    0.000000    0.000000    
7.122151    156.430450    -28.466829    3.022934    -3.935549    -30.471970    1.887358    0.368079    5.705189    -2.375312    2.732526    1.959619    7.955447    1.572442    7.725572    -3.537253    1.237254    6.503187    -3.653098    9.099716    -7.840501    -43.982731    18.714710    -33.070110    29.523396    -45.888256    -59.696339    -17.534336    -28.712425    -27.391533    -4.458500    9.728375    0.697371    37.408672    14.858772    65.628830    -3.421086    -22.919361    105.321014    11.331746    -17.237833    15.680267    10.547113    -18.312815    -2.199160    -14.904152    19.876080    8.955019    -3.865556    -0.164580    25.329281    0.000000    0.000000    0.000000    -15.863871    2.148723    8.304657    6.699428    27.267143    4.111846    3.662642    -26.865862    -20.701599    0.000000    0.000000    0.000000    
7.272287    156.491089    -28.409889    3.036655    -3.967899    -31.154274    1.943449    0.381999    5.714175    -2.428282    2.728707    1.963931    8.065632    1.622740    8.020615    -3.728481    1.329096    6.777102    -3.689164    9.119803    -7.798054    -44.093460    18.496981    -32.774536    29.772705    -45.975182    -59.440548    -17.443211    -28.767771    -27.516659    -4.511793    9.786297    0.753053    37.182880    14.921673    66.029594    -3.309563    -22.726515    105.210915    11.446906    -17.170980    15.679355    10.622102    -18.106932    -1.883087    -14.930449    19.820545    9.153867    -3.859667    -0.251257    25.459839    0.000000    0.000000    0.000000    -16.042006    1.908706    8.634326    6.687017    27.212677    4.217675    3.786634    -26.719204    -20.482218    0.000000    0.000000    0.000000    
7.423143    156.545135    -28.352768    3.029270    -3.996134    -31.855427    2.004325    0.387304    5.752697    -2.475102    2.743779    1.978272    8.265307    1.688587    8.320061    -4.014975    1.414371    7.032575    -3.714653    9.121431    -7.817936    -44.199142    18.304478    -32.481159    30.086689    -46.106052    -59.124638    -17.349434    -28.887350    -27.479790    -4.532200    9.727119    0.871791    36.915569    15.038681    66.288879    -3.355020    -22.674976    105.044983    11.382533    -17.079424    15.703603    10.717767    -17.886606    -1.561879    -14.954201    19.760857    9.375850    -3.843802    -0.358134    25.569105    0.000000    0.000000    0.000000    -16.202898    1.682533    8.877934    6.639134    27.132494    4.391589    3.899958    -26.568380    -20.226721    0.000000    0.000000    0.000000    
7.567517    156.604813    -28.310532    3.037883    -4.015800    -32.524624    2.043068    0.398712    5.742255    -2.488377    2.738606    1.975102    8.391928    1.744464    8.631823    -4.255979    1.498099    7.316432    -3.757858    9.088085    -7.763337    -44.345314    18.100533    -32.189838    30.430532    -46.176941    -58.766724    -17.430981    -28.875452    -27.557753    -4.609821    9.719130    0.979977    36.797718    15.009627    66.586388    -3.135642    -22.293858    105.001785    11.460804    -16.945971    15.765480    10.801149    -17.699469    -1.217677    -14.965743    19.724323    9.527607    -3.854107    -0.445847    25.705484    0.000000    0.000000    0.000000    -16.362278    1.446253    9.099113    6.573936    27.054176    4.563985    4.027184    -26.401848    -19.976784    0.000000    0.000000    0.000000    
